<mxfile host="Electron" agent="Mozilla/5.0 (Windows NT 10.0; Win64; x64) AppleWebKit/537.36 (KHTML, like Gecko) draw.io/24.7.8 Chrome/128.0.6613.36 Electron/32.0.1 Safari/537.36" version="24.7.8">
  <diagram name="Page-1" id="NSvTN1qaKBNl6jfOgt4m">
    <mxGraphModel dx="1340" dy="1728" grid="1" gridSize="10" guides="1" tooltips="1" connect="1" arrows="1" fold="1" page="1" pageScale="1" pageWidth="850" pageHeight="1100" math="0" shadow="0">
      <root>
        <mxCell id="0" />
        <mxCell id="1" parent="0" />
        <mxCell id="H0_RSNS9-UHbDjhZOvzo-1" value="" style="rounded=0;whiteSpace=wrap;html=1;" vertex="1" parent="1">
          <mxGeometry x="110" y="-620" width="320" height="340" as="geometry" />
        </mxCell>
        <mxCell id="H0_RSNS9-UHbDjhZOvzo-9" value="Login" style="ellipse;whiteSpace=wrap;html=1;" vertex="1" parent="1">
          <mxGeometry x="173" y="-550" width="80" height="50" as="geometry" />
        </mxCell>
        <mxCell id="H0_RSNS9-UHbDjhZOvzo-10" value="Aplikasi Manajemen Data Siswa" style="text;html=1;align=center;verticalAlign=middle;whiteSpace=wrap;rounded=0;" vertex="1" parent="1">
          <mxGeometry x="188" y="-600" width="190" height="30" as="geometry" />
        </mxCell>
        <mxCell id="H0_RSNS9-UHbDjhZOvzo-11" value="Mengelola&lt;div&gt;Data Siswa&lt;/div&gt;" style="ellipse;whiteSpace=wrap;html=1;" vertex="1" parent="1">
          <mxGeometry x="285" y="-500" width="80" height="50" as="geometry" />
        </mxCell>
        <mxCell id="H0_RSNS9-UHbDjhZOvzo-12" value="Mengelola Data Nilai" style="ellipse;whiteSpace=wrap;html=1;" vertex="1" parent="1">
          <mxGeometry x="175" y="-450" width="80" height="50" as="geometry" />
        </mxCell>
        <mxCell id="H0_RSNS9-UHbDjhZOvzo-13" value="Tambah&amp;nbsp;&lt;div&gt;Data Siswa&lt;/div&gt;" style="ellipse;whiteSpace=wrap;html=1;" vertex="1" parent="1">
          <mxGeometry x="175" y="-360" width="80" height="50" as="geometry" />
        </mxCell>
        <mxCell id="H0_RSNS9-UHbDjhZOvzo-14" value="Lihat Nilai&lt;div&gt;Siswa&lt;/div&gt;" style="ellipse;whiteSpace=wrap;html=1;" vertex="1" parent="1">
          <mxGeometry x="310" y="-360" width="80" height="50" as="geometry" />
        </mxCell>
        <mxCell id="H0_RSNS9-UHbDjhZOvzo-15" value="" style="endArrow=none;dashed=1;html=1;rounded=0;entryX=0;entryY=0.5;entryDx=0;entryDy=0;exitX=1;exitY=0.5;exitDx=0;exitDy=0;" edge="1" parent="1" source="H0_RSNS9-UHbDjhZOvzo-13" target="H0_RSNS9-UHbDjhZOvzo-14">
          <mxGeometry width="50" height="50" relative="1" as="geometry">
            <mxPoint x="220" y="-420" as="sourcePoint" />
            <mxPoint x="270" y="-470" as="targetPoint" />
          </mxGeometry>
        </mxCell>
        <mxCell id="H0_RSNS9-UHbDjhZOvzo-16" value="&lt;font style=&quot;font-size: 10px;&quot;&gt;&amp;lt;&amp;lt;include&amp;gt;&amp;gt;&lt;/font&gt;" style="text;html=1;align=center;verticalAlign=middle;whiteSpace=wrap;rounded=0;" vertex="1" parent="1">
          <mxGeometry x="253" y="-370" width="60" height="30" as="geometry" />
        </mxCell>
        <mxCell id="H0_RSNS9-UHbDjhZOvzo-17" value="&lt;font style=&quot;font-size: 10px;&quot;&gt;&amp;lt;&amp;lt;extend&amp;gt;&amp;gt;&lt;/font&gt;" style="text;html=1;align=center;verticalAlign=middle;whiteSpace=wrap;rounded=0;" vertex="1" parent="1">
          <mxGeometry x="253" y="-330" width="60" height="30" as="geometry" />
        </mxCell>
        <mxCell id="H0_RSNS9-UHbDjhZOvzo-18" value="Actor" style="shape=umlActor;verticalLabelPosition=bottom;verticalAlign=top;html=1;outlineConnect=0;" vertex="1" parent="1">
          <mxGeometry x="-70" y="-455" width="30" height="60" as="geometry" />
        </mxCell>
        <mxCell id="H0_RSNS9-UHbDjhZOvzo-19" value="" style="endArrow=none;html=1;rounded=0;" edge="1" parent="1">
          <mxGeometry width="50" height="50" relative="1" as="geometry">
            <mxPoint x="-30" y="-420" as="sourcePoint" />
            <mxPoint x="70" y="-420" as="targetPoint" />
          </mxGeometry>
        </mxCell>
        <mxCell id="H0_RSNS9-UHbDjhZOvzo-20" value="" style="endArrow=none;html=1;rounded=0;entryX=0;entryY=0.5;entryDx=0;entryDy=0;" edge="1" parent="1" target="H0_RSNS9-UHbDjhZOvzo-12">
          <mxGeometry width="50" height="50" relative="1" as="geometry">
            <mxPoint x="70" y="-420" as="sourcePoint" />
            <mxPoint x="80" y="-410" as="targetPoint" />
          </mxGeometry>
        </mxCell>
        <mxCell id="H0_RSNS9-UHbDjhZOvzo-21" value="" style="endArrow=none;html=1;rounded=0;entryX=0;entryY=0.5;entryDx=0;entryDy=0;" edge="1" parent="1" target="H0_RSNS9-UHbDjhZOvzo-11">
          <mxGeometry width="50" height="50" relative="1" as="geometry">
            <mxPoint x="70" y="-420" as="sourcePoint" />
            <mxPoint x="185" y="-415" as="targetPoint" />
          </mxGeometry>
        </mxCell>
        <mxCell id="H0_RSNS9-UHbDjhZOvzo-22" value="" style="endArrow=none;html=1;rounded=0;entryX=0;entryY=1;entryDx=0;entryDy=0;" edge="1" parent="1" target="H0_RSNS9-UHbDjhZOvzo-9">
          <mxGeometry width="50" height="50" relative="1" as="geometry">
            <mxPoint x="30" y="-420" as="sourcePoint" />
            <mxPoint x="295" y="-465" as="targetPoint" />
          </mxGeometry>
        </mxCell>
        <mxCell id="H0_RSNS9-UHbDjhZOvzo-23" value="" style="endArrow=none;html=1;rounded=0;entryX=0;entryY=0.5;entryDx=0;entryDy=0;" edge="1" parent="1" target="H0_RSNS9-UHbDjhZOvzo-13">
          <mxGeometry width="50" height="50" relative="1" as="geometry">
            <mxPoint x="60" y="-420" as="sourcePoint" />
            <mxPoint x="295" y="-465" as="targetPoint" />
          </mxGeometry>
        </mxCell>
      </root>
    </mxGraphModel>
  </diagram>
</mxfile>
